<?xml version="1.0" encoding="UTF-8" standalone="no"?>
<svg xmlns="http://www.w3.org/2000/svg" width="128" height="128" viewBox="0 0 128 128">
  <!-- خلفية الأيقونة -->
  <rect width="128" height="128" rx="12" fill="#1e3c72"/>
  <rect width="128" height="128" rx="12" fill="url(#paint0_linear)" fill-opacity="0.8"/>
  
  <!-- جهاز البصمة -->
  <g transform="translate(25, 20) scale(0.8)">
    <rect x="10" y="10" width="70" height="90" rx="5" fill="#f1f1f1"/>
    <rect x="20" y="25" width="50" height="40" rx="3" fill="#2c3e50"/>
    
    <!-- شاشة جهاز البصمة -->
    <rect x="25" y="30" width="40" height="30" rx="2" fill="#3498db"/>
    <line x1="30" y1="40" x2="60" y2="40" stroke="#f1f1f1" stroke-width="2"/>
    <line x1="30" y1="50" x2="50" y2="50" stroke="#f1f1f1" stroke-width="2"/>
    
    <!-- زر البصمة -->
    <circle cx="45" cy="80" r="15" fill="#e74c3c"/>
    <circle cx="45" cy="80" r="12" fill="#c0392b"/>
    <path d="M38 80 Q45 70, 52 80 Q45 85, 38 80" fill="none" stroke="#f1f1f1" stroke-width="1.5"/>
    <path d="M36 77 Q45 65, 54 77 Q45 82, 36 77" fill="none" stroke="#f1f1f1" stroke-width="1.5"/>
    <path d="M35 74 Q45 60, 55 74 Q45 79, 35 74" fill="none" stroke="#f1f1f1" stroke-width="1.5"/>
  </g>
  
  <!-- رمز Odoo -->
  <g transform="translate(75, 75) scale(0.25)">
    <circle cx="50" cy="50" r="50" fill="#714b67"/>
    <path d="M52.3 65.8h17.5c8.4 0 15.3-6.9 15.3-15.3 0-8.4-6.9-15.3-15.3-15.3H52.3c-8.4 0-15.3 6.9-15.3 15.3 0 8.4 6.9 15.3 15.3 15.3z" fill="#ffffff"/>
    <circle cx="52.3" cy="50.5" r="7.7" fill="#714b67"/>
  </g>
  
  <!-- خط الاتصال -->
  <path d="M60 50 Q80 40, 85 65" stroke="#ffffff" stroke-width="3" stroke-dasharray="5,3" fill="none"/>
  
  <!-- تدرج اللون للخلفية -->
  <defs>
    <linearGradient id="paint0_linear" x1="0" y1="0" x2="128" y2="128" gradientUnits="userSpaceOnUse">
      <stop offset="0" stop-color="#2a5298"/>
      <stop offset="1" stop-color="#1e3c72"/>
    </linearGradient>
  </defs>
</svg>
